0
SECTION
2
ENTITIES
0
LINE
8
PLATAFORMA
10
-210.000
20
-160.000
30
0
11
210.000
21
-160.000
31
0
0
LINE
8
PLATAFORMA
10
210.000
20
-160.000
30
0
11
210.000
21
160.000
31
0
0
LINE
8
PLATAFORMA
10
210.000
20
160.000
30
0
11
-210.000
21
160.000
31
0
0
LINE
8
PLATAFORMA
10
-210.000
20
160.000
30
0
11
-210.000
21
-160.000
31
0
0
LINE
8
TRILHOS_MOTOR
10
-187.000
20
-125.000
30
0
11
-153.000
21
-125.000
31
0
0
LINE
8
TRILHOS_MOTOR
10
-153.000
20
-125.000
30
0
11
-153.000
21
125.000
31
0
0
LINE
8
TRILHOS_MOTOR
10
-153.000
20
125.000
30
0
11
-187.000
21
125.000
31
0
0
LINE
8
TRILHOS_MOTOR
10
-187.000
20
125.000
30
0
11
-187.000
21
-125.000
31
0
0
LINE
8
TRILHOS_MOTOR
10
153.000
20
-125.000
30
0
11
187.000
21
-125.000
31
0
0
LINE
8
TRILHOS_MOTOR
10
187.000
20
-125.000
30
0
11
187.000
21
125.000
31
0
0
LINE
8
TRILHOS_MOTOR
10
187.000
20
125.000
30
0
11
153.000
21
125.000
31
0
0
LINE
8
TRILHOS_MOTOR
10
153.000
20
125.000
30
0
11
153.000
21
-125.000
31
0
0
LINE
8
RODIZIOS
10
-55.000
20
113.000
30
0
11
55.000
21
113.000
31
0
0
LINE
8
RODIZIOS
10
55.000
20
113.000
30
0
11
55.000
21
157.000
31
0
0
LINE
8
RODIZIOS
10
55.000
20
157.000
30
0
11
-55.000
21
157.000
31
0
0
LINE
8
RODIZIOS
10
-55.000
20
157.000
30
0
11
-55.000
21
113.000
31
0
0
LINE
8
RODIZIOS
10
-55.000
20
-157.000
30
0
11
55.000
21
-157.000
31
0
0
LINE
8
RODIZIOS
10
55.000
20
-157.000
30
0
11
55.000
21
-113.000
31
0
0
LINE
8
RODIZIOS
10
55.000
20
-113.000
30
0
11
-55.000
21
-113.000
31
0
0
LINE
8
RODIZIOS
10
-55.000
20
-113.000
30
0
11
-55.000
21
-157.000
31
0
0
LINE
8
ELETRONICA
10
-90.000
20
-75.000
30
0
11
90.000
21
-75.000
31
0
0
LINE
8
ELETRONICA
10
90.000
20
-75.000
30
0
11
90.000
21
75.000
31
0
0
LINE
8
ELETRONICA
10
90.000
20
75.000
30
0
11
-90.000
21
75.000
31
0
0
LINE
8
ELETRONICA
10
-90.000
20
75.000
30
0
11
-90.000
21
-75.000
31
0
0
LINE
8
TORRE
10
-60.000
20
-50.000
30
0
11
60.000
21
-50.000
31
0
0
LINE
8
TORRE
10
60.000
20
-50.000
30
0
11
60.000
21
50.000
31
0
0
LINE
8
TORRE
10
60.000
20
50.000
30
0
11
-60.000
21
50.000
31
0
0
LINE
8
TORRE
10
-60.000
20
50.000
30
0
11
-60.000
21
-50.000
31
0
0
CIRCLE
8
FUROS
10
-185.000
20
-115.000
30
0
40
4.000
0
CIRCLE
8
FUROS
10
-185.000
20
115.000
30
0
40
4.000
0
CIRCLE
8
FUROS
10
185.000
20
-115.000
30
0
40
4.000
0
CIRCLE
8
FUROS
10
185.000
20
115.000
30
0
40
4.000
0
CIRCLE
8
FUROS
10
-35.000
20
-135.000
30
0
40
4.000
0
CIRCLE
8
FUROS
10
-35.000
20
135.000
30
0
40
4.000
0
CIRCLE
8
FUROS
10
35.000
20
-135.000
30
0
40
4.000
0
CIRCLE
8
FUROS
10
35.000
20
135.000
30
0
40
4.000
0
CIRCLE
8
FUROS
10
-45.000
20
-35.000
30
0
40
3.000
0
CIRCLE
8
FUROS
10
-45.000
20
35.000
30
0
40
3.000
0
CIRCLE
8
FUROS
10
45.000
20
-35.000
30
0
40
3.000
0
CIRCLE
8
FUROS
10
45.000
20
35.000
30
0
40
3.000
0
ENDSEC
0
EOF
